<svg width="80" height="80" viewBox="0 0 80 80" fill="none" xmlns="http://www.w3.org/2000/svg">
<rect width="80" height="80" rx="20" fill="#D7D7D4"/>
<path d="M32.3914 50.5326C32.0652 49.9066 31.8287 49.1281 31.6819 48.1972C29.9693 50.0752 27.7431 51.0142 25.003 51.0142C22.4098 51.0142 20.2569 50.2758 18.5443 48.7991C16.8481 47.3224 16 45.4604 16 43.2133C16 40.4525 17.0357 38.3337 19.107 36.857C21.1947 35.3803 24.2038 34.6339 28.1345 34.6179H31.3883V33.1251C31.3883 31.9213 31.0703 30.9582 30.4342 30.2359C29.8144 29.5136 28.8277 29.1524 27.4739 29.1524C26.2833 29.1524 25.3455 29.4333 24.6605 29.9951C23.9918 30.5569 23.6575 31.3274 23.6575 32.3065H16.5872C16.5872 30.7977 17.0601 29.4012 18.0061 28.1171C18.9521 26.833 20.2895 25.8298 22.0183 25.1075C23.7472 24.3692 25.688 24 27.8409 24C31.1029 24 33.688 24.8106 35.5962 26.4318C37.5208 28.0369 38.4831 30.3001 38.4831 33.2214V44.5134C38.4994 46.9853 38.85 48.8553 39.5351 50.1233V50.5326H32.3914ZM26.5443 45.6932C27.5881 45.6932 28.5504 45.4685 29.4311 45.019C30.3119 44.5536 30.9642 43.9356 31.3883 43.1651V38.6868H28.7461C25.2069 38.6868 23.3231 39.8907 23.0948 42.2984L23.0703 42.7077C23.0703 43.5744 23.3802 44.2887 24 44.8505C24.6197 45.4123 25.4678 45.6932 26.5443 45.6932Z" fill="#373746"/>
<path d="M66 30.9075V34.6057H63.2443V50.0395C63.2443 53.3268 62.2756 55.8087 60.3383 57.4852C58.4343 59.1617 55.8289 60 52.5221 60C49.9167 60 47.1276 59.5233 44.1548 58.57L45.1568 54.6746C47.5618 55.4307 49.7163 55.8087 51.6202 55.8087C53.424 55.8087 54.7935 55.3814 55.7287 54.5267C56.6974 53.672 57.1817 52.4228 57.1817 50.7792V48.9054C55.4782 50.1875 53.4741 50.8285 51.1693 50.8285C48.2633 50.8285 45.9084 49.9245 44.1047 48.1165C42.3343 46.2756 41.4492 43.7937 41.4492 40.6708C41.4492 37.5478 42.3343 35.0659 44.1047 33.2251C45.875 31.3842 48.2132 30.4638 51.1192 30.4638C52.2883 30.4638 53.424 30.6774 54.5262 31.1048C55.6285 31.4992 56.5805 32.0416 57.3822 32.732L57.4323 30.9075H66ZM47.7121 40.7694C47.7121 42.5445 48.1965 43.9416 49.1651 44.9607C50.1672 45.9797 51.4532 46.4893 53.0231 46.4893C54.5262 46.4893 55.9124 46.0784 57.1817 45.2565L57.1316 36.2329C55.6953 35.2467 54.259 34.7537 52.8227 34.7537C51.2862 34.7537 50.0503 35.2796 49.115 36.3316C48.1798 37.3506 47.7121 38.8299 47.7121 40.7694Z" fill="#373746"/>
</svg>
