<svg width="80" height="80" viewBox="0 0 80 80" fill="none" xmlns="http://www.w3.org/2000/svg">
<rect width="80" height="80" rx="20" fill="#D7D7D4"/>
<path fill-rule="evenodd" clip-rule="evenodd" d="M26.328 40.0703C27.4067 40.0703 28.2811 40.9447 28.2811 42.0233V53.7423L51.7189 53.7423V42.0233C51.7189 40.9447 52.5933 40.0703 53.672 40.0703C54.7506 40.0703 55.625 40.9447 55.625 42.0233V53.7423C55.625 55.8995 53.8762 57.6483 51.7189 57.6483H28.2811C26.1238 57.6483 24.375 55.8995 24.375 53.7423V42.0233C24.375 40.9447 25.2494 40.0703 26.328 40.0703Z" fill="#2A2921"/>
<path fill-rule="evenodd" clip-rule="evenodd" d="M40.001 45.5469C41.0796 45.5469 41.954 44.6725 41.954 43.5938V28.6715L46.9406 32.9026C47.7631 33.6004 48.9955 33.4994 49.6934 32.6769C50.3912 31.8545 50.2902 30.622 49.4677 29.9242L41.2646 22.9639C40.5357 22.3454 39.4663 22.3454 38.7374 22.9639L30.5342 29.9242C29.7118 30.622 29.6107 31.8545 30.3086 32.6769C31.0064 33.4994 32.2389 33.6004 33.0614 32.9026L38.0479 28.6715V43.5938C38.0479 44.6725 38.9223 45.5469 40.001 45.5469Z" fill="#2A2921"/>
</svg>
