<svg width="121" height="27" viewBox="0 0 121 27" fill="none" xmlns="http://www.w3.org/2000/svg">
<path d="M5.215 17.29H0C0 20.3467 0.851667 22.5867 2.555 24.01C4.28167 25.4333 6.895 26.145 10.395 26.145C11.585 26.145 12.7867 25.9933 14 25.69C15.2133 25.41 16.2983 24.9433 17.255 24.29C18.235 23.6367 19.0283 22.785 19.635 21.735C20.265 20.685 20.58 19.4133 20.58 17.92C20.58 16.8 20.4167 15.855 20.09 15.085C19.7633 14.315 19.2967 13.6617 18.69 13.125C18.1067 12.5883 17.4067 12.1567 16.59 11.83C15.7733 11.48 14.875 11.1767 13.895 10.92C13.475 10.8267 12.9267 10.71 12.25 10.57C11.5733 10.4067 10.9083 10.1967 10.255 9.94C9.625 9.66 9.07667 9.32167 8.61 8.925C8.16667 8.505 7.945 7.99167 7.945 7.385C7.945 6.80167 8.07333 6.31167 8.33 5.915C8.58667 5.51833 8.925 5.20333 9.345 4.97C9.765 4.71333 10.2317 4.53833 10.745 4.445C11.2817 4.32833 11.8067 4.27 12.32 4.27C12.95 4.27 13.545 4.34 14.105 4.48C14.665 4.59667 15.1433 4.80666 15.54 5.11C15.96 5.41333 16.275 5.81 16.485 6.3C16.7183 6.76667 16.8233 7.35 16.8 8.05H22.015C22.015 6.60333 21.7583 5.37833 21.245 4.375C20.755 3.34833 20.0783 2.50833 19.215 1.855C18.375 1.20167 17.3833 0.734999 16.24 0.454998C15.12 0.151666 13.9183 0 12.635 0C11.4217 0 10.22 0.151666 9.03 0.454998C7.86333 0.734999 6.81333 1.19 5.88 1.82C4.94667 2.42667 4.18833 3.22 3.605 4.2C3.02167 5.18 2.73 6.37 2.73 7.77C2.73 8.84333 2.905 9.75333 3.255 10.5C3.62833 11.2467 4.10667 11.8767 4.69 12.39C5.29667 12.9033 5.97333 13.3233 6.72 13.65C7.46667 13.9767 8.23667 14.2567 9.03 14.49C9.8 14.7233 10.5583 14.945 11.305 15.155C12.075 15.365 12.7517 15.61 13.335 15.89C13.9417 16.17 14.4317 16.5083 14.805 16.905C15.1783 17.2783 15.365 17.7683 15.365 18.375C15.365 19.005 15.2133 19.5417 14.91 19.985C14.63 20.4283 14.2567 20.79 13.79 21.07C13.3467 21.35 12.845 21.56 12.285 21.7C11.725 21.84 11.165 21.91 10.605 21.91C9.81167 21.91 9.07667 21.84 8.4 21.7C7.72333 21.5367 7.14 21.28 6.65 20.93C6.16 20.58 5.78667 20.1133 5.53 19.53C5.27333 18.9233 5.16833 18.1767 5.215 17.29Z" fill="black"/>
<path d="M28.8203 16.555C28.8203 15.8317 28.8903 15.12 29.0303 14.42C29.1703 13.72 29.4036 13.1017 29.7303 12.565C30.0803 12.0283 30.5353 11.5967 31.0953 11.27C31.6553 10.92 32.3553 10.745 33.1953 10.745C34.0353 10.745 34.7353 10.92 35.2953 11.27C35.8786 11.5967 36.3336 12.0283 36.6603 12.565C37.0103 13.1017 37.2553 13.72 37.3953 14.42C37.5353 15.12 37.6053 15.8317 37.6053 16.555C37.6053 17.2783 37.5353 17.99 37.3953 18.69C37.2553 19.3667 37.0103 19.985 36.6603 20.545C36.3336 21.0817 35.8786 21.5133 35.2953 21.84C34.7353 22.1667 34.0353 22.33 33.1953 22.33C32.3553 22.33 31.6553 22.1667 31.0953 21.84C30.5353 21.5133 30.0803 21.0817 29.7303 20.545C29.4036 19.985 29.1703 19.3667 29.0303 18.69C28.8903 17.99 28.8203 17.2783 28.8203 16.555ZM23.8503 16.555C23.8503 18.0017 24.072 19.3083 24.5153 20.475C24.9586 21.6417 25.5886 22.645 26.4053 23.485C27.222 24.3017 28.202 24.9317 29.3453 25.375C30.4886 25.8183 31.772 26.04 33.1953 26.04C34.6186 26.04 35.902 25.8183 37.0453 25.375C38.212 24.9317 39.2036 24.3017 40.0203 23.485C40.837 22.645 41.467 21.6417 41.9103 20.475C42.3536 19.3083 42.5753 18.0017 42.5753 16.555C42.5753 15.1083 42.3536 13.8017 41.9103 12.635C41.467 11.445 40.837 10.4417 40.0203 9.625C39.2036 8.785 38.212 8.14333 37.0453 7.7C35.902 7.23333 34.6186 7 33.1953 7C31.772 7 30.4886 7.23333 29.3453 7.7C28.202 8.14333 27.222 8.785 26.4053 9.625C25.5886 10.4417 24.9586 11.445 24.5153 12.635C24.072 13.8017 23.8503 15.1083 23.8503 16.555Z" fill="black"/>
<path d="M47.5218 7.49L43.7768 25.585H46.7168L48.4318 17.57C48.5718 16.8933 48.7585 16.17 48.9918 15.4C49.2251 14.6067 49.5401 13.9183 49.9368 13.335C50.4035 12.6117 50.9518 11.9933 51.5818 11.48C52.2351 10.9667 52.9701 10.605 53.7868 10.395C54.1368 10.3017 54.4285 10.255 54.6618 10.255C54.8951 10.2317 55.1985 10.22 55.5718 10.22H55.9918C56.2018 10.22 56.3535 10.2317 56.4468 10.255L57.1468 7.07C56.9601 7.02333 56.7851 7.01167 56.6218 7.035C56.4585 7.05833 56.2835 7.07 56.0968 7.07C54.5801 7.07 53.2735 7.47833 52.1768 8.295C51.1035 9.11167 50.2168 10.1383 49.5168 11.375H49.4468L50.3218 7.49H47.5218Z" fill="black"/>
<path d="M65.3021 8.855C66.3521 8.855 67.2737 9.07667 68.0671 9.52C68.8604 9.96333 69.5137 10.5467 70.0271 11.27C70.5637 11.9933 70.9604 12.8217 71.2171 13.755C71.4971 14.665 71.6371 15.5983 71.6371 16.555C71.6371 17.5117 71.4971 18.4567 71.2171 19.39C70.9604 20.3 70.5637 21.1167 70.0271 21.84C69.5137 22.5633 68.8604 23.1467 68.0671 23.59C67.2737 24.0333 66.3521 24.255 65.3021 24.255C64.2521 24.255 63.3304 24.0333 62.5371 23.59C61.7437 23.1467 61.0787 22.5633 60.5421 21.84C60.0287 21.1167 59.6321 20.3 59.3521 19.39C59.0954 18.4567 58.9671 17.5117 58.9671 16.555C58.9671 15.5983 59.0954 14.665 59.3521 13.755C59.6321 12.8217 60.0287 11.9933 60.5421 11.27C61.0787 10.5467 61.7437 9.96333 62.5371 9.52C63.3304 9.07667 64.2521 8.855 65.3021 8.855ZM65.3021 7C63.9254 7 62.7004 7.25667 61.6271 7.77C60.5771 8.28333 59.6904 8.97167 58.9671 9.835C58.2437 10.6983 57.6954 11.7133 57.3221 12.88C56.9487 14.0233 56.7621 15.2483 56.7621 16.555C56.7621 17.8617 56.9487 19.0983 57.3221 20.265C57.6954 21.4083 58.2437 22.4117 58.9671 23.275C59.6904 24.1383 60.5771 24.8267 61.6271 25.34C62.7004 25.83 63.9254 26.075 65.3021 26.075C66.6787 26.075 67.8921 25.83 68.9421 25.34C70.0154 24.8267 70.9137 24.1383 71.6371 23.275C72.3604 22.4117 72.9087 21.4083 73.2821 20.265C73.6554 19.0983 73.8421 17.8617 73.8421 16.555C73.8421 15.2483 73.6554 14.0233 73.2821 12.88C72.9087 11.7133 72.3604 10.6983 71.6371 9.835C70.9137 8.97167 70.0154 8.28333 68.9421 7.77C67.8921 7.25667 66.6787 7 65.3021 7Z" fill="black"/>
<path d="M80.1303 0.594998H81.4603L77.8903 17.115L77.9603 17.185L90.0353 7.595H92.0303L82.8953 14.77L89.3353 25.585H87.6553L81.7753 15.61L77.5053 18.935L76.1053 25.585H74.7753L80.1303 0.594998Z" fill="black"/>
<path d="M93.1115 13.16H93.8115C93.9281 11.48 94.5115 10.185 95.5615 9.275C96.6115 8.34167 98.0815 7.875 99.9715 7.875C101.161 7.875 102.106 8.03833 102.806 8.365C103.506 8.66833 104.031 9.065 104.381 9.555C104.755 10.045 104.988 10.5817 105.081 11.165C105.175 11.7483 105.221 12.3083 105.221 12.845C105.221 13.5217 105.081 14.0467 104.801 14.42C104.545 14.77 104.125 15.0383 103.541 15.225C102.981 15.3883 102.258 15.505 101.371 15.575C100.485 15.6217 99.4231 15.68 98.1865 15.75C97.4398 15.7967 96.6931 15.9017 95.9465 16.065C95.1998 16.205 94.5348 16.4733 93.9515 16.87C93.3681 17.2433 92.8898 17.7683 92.5165 18.445C92.1665 19.1217 91.9915 20.02 91.9915 21.14C91.9915 22.75 92.5398 23.9633 93.6365 24.78C94.7331 25.5733 96.1915 25.97 98.0115 25.97C98.9448 25.97 99.8081 25.8417 100.601 25.585C101.395 25.3517 102.095 25.025 102.701 24.605C103.331 24.185 103.845 23.7067 104.241 23.17C104.661 22.6333 104.965 22.0733 105.151 21.49H105.221V23.835C105.221 24.5117 105.408 24.9783 105.781 25.235C106.178 25.4683 106.633 25.585 107.146 25.585H108.196V24.885C107.963 24.9083 107.706 24.9317 107.426 24.955C107.17 24.955 106.925 24.9317 106.691 24.885C106.458 24.815 106.271 24.6983 106.131 24.535C105.991 24.3717 105.921 24.115 105.921 23.765V12.32C105.898 11.34 105.723 10.5233 105.396 9.87C105.07 9.21667 104.638 8.69167 104.101 8.295C103.565 7.875 102.935 7.58333 102.211 7.42C101.511 7.25667 100.765 7.175 99.9715 7.175C98.8515 7.175 97.8715 7.32667 97.0315 7.63C96.2148 7.93333 95.5148 8.35333 94.9315 8.89C94.3715 9.42667 93.9398 10.0683 93.6365 10.815C93.3331 11.5383 93.1581 12.32 93.1115 13.16ZM105.221 15.015V18.34C105.221 19.2267 105.058 20.09 104.731 20.93C104.428 21.77 103.961 22.5167 103.331 23.17C102.725 23.8 101.966 24.3133 101.056 24.71C100.146 25.1067 99.1081 25.305 97.9415 25.305C96.9615 25.305 96.1331 25.1883 95.4565 24.955C94.8031 24.6983 94.2665 24.3833 93.8465 24.01C93.4265 23.6133 93.1231 23.17 92.9365 22.68C92.7731 22.1667 92.6915 21.6533 92.6915 21.14C92.6915 20.1833 92.8431 19.4133 93.1465 18.83C93.4498 18.2233 93.8581 17.7567 94.3715 17.43C94.8848 17.08 95.4681 16.8467 96.1215 16.73C96.7981 16.59 97.4865 16.4967 98.1865 16.45C98.8865 16.4033 99.5981 16.3683 100.321 16.345C101.068 16.3217 101.756 16.2633 102.386 16.17C103.016 16.0767 103.576 15.9483 104.066 15.785C104.556 15.5983 104.918 15.3417 105.151 15.015H105.221Z" fill="black"/>
<path d="M114.687 6.02L115.282 5.215L116.262 0.594998H117.277L116.297 5.285L120.672 3.99L120.952 4.97L116.507 6.265L115.492 6.58L112.272 10.045L111.467 9.345L114.687 6.02Z" fill="black"/>
</svg>
